<svg aria-roledescription="class" role="graphics-document document" viewBox="0 -47 1248.1953125 1113" style="max-width: 1248.2px; background-color: white;" class="classDiagram" xmlns:xlink="http://www.w3.org/1999/xlink" xmlns="http://www.w3.org/2000/svg" width="100%" id="my-svg"><style>#my-svg{font-family:"trebuchet ms",verdana,arial,sans-serif;font-size:16px;fill:#333;}@keyframes edge-animation-frame{from{stroke-dashoffset:0;}}@keyframes dash{to{stroke-dashoffset:0;}}#my-svg .edge-animation-slow{stroke-dasharray:9,5!important;stroke-dashoffset:900;animation:dash 50s linear infinite;stroke-linecap:round;}#my-svg .edge-animation-fast{stroke-dasharray:9,5!important;stroke-dashoffset:900;animation:dash 20s linear infinite;stroke-linecap:round;}#my-svg .error-icon{fill:#552222;}#my-svg .error-text{fill:#552222;stroke:#552222;}#my-svg .edge-thickness-normal{stroke-width:1px;}#my-svg .edge-thickness-thick{stroke-width:3.5px;}#my-svg .edge-pattern-solid{stroke-dasharray:0;}#my-svg .edge-thickness-invisible{stroke-width:0;fill:none;}#my-svg .edge-pattern-dashed{stroke-dasharray:3;}#my-svg .edge-pattern-dotted{stroke-dasharray:2;}#my-svg .marker{fill:#333333;stroke:#333333;}#my-svg .marker.cross{stroke:#333333;}#my-svg svg{font-family:"trebuchet ms",verdana,arial,sans-serif;font-size:16px;}#my-svg p{margin:0;}#my-svg g.classGroup text{fill:#9370DB;stroke:none;font-family:"trebuchet ms",verdana,arial,sans-serif;font-size:10px;}#my-svg g.classGroup text .title{font-weight:bolder;}#my-svg .nodeLabel,#my-svg .edgeLabel{color:#131300;}#my-svg .edgeLabel .label rect{fill:#ECECFF;}#my-svg .label text{fill:#131300;}#my-svg .labelBkg{background:#ECECFF;}#my-svg .edgeLabel .label span{background:#ECECFF;}#my-svg .classTitle{font-weight:bolder;}#my-svg .node rect,#my-svg .node circle,#my-svg .node ellipse,#my-svg .node polygon,#my-svg .node path{fill:#ECECFF;stroke:#9370DB;stroke-width:1px;}#my-svg .divider{stroke:#9370DB;stroke-width:1;}#my-svg g.clickable{cursor:pointer;}#my-svg g.classGroup rect{fill:#ECECFF;stroke:#9370DB;}#my-svg g.classGroup line{stroke:#9370DB;stroke-width:1;}#my-svg .classLabel .box{stroke:none;stroke-width:0;fill:#ECECFF;opacity:0.5;}#my-svg .classLabel .label{fill:#9370DB;font-size:10px;}#my-svg .relation{stroke:#333333;stroke-width:1;fill:none;}#my-svg .dashed-line{stroke-dasharray:3;}#my-svg .dotted-line{stroke-dasharray:1 2;}#my-svg #compositionStart,#my-svg .composition{fill:#333333!important;stroke:#333333!important;stroke-width:1;}#my-svg #compositionEnd,#my-svg .composition{fill:#333333!important;stroke:#333333!important;stroke-width:1;}#my-svg #dependencyStart,#my-svg .dependency{fill:#333333!important;stroke:#333333!important;stroke-width:1;}#my-svg #dependencyStart,#my-svg .dependency{fill:#333333!important;stroke:#333333!important;stroke-width:1;}#my-svg #extensionStart,#my-svg .extension{fill:transparent!important;stroke:#333333!important;stroke-width:1;}#my-svg #extensionEnd,#my-svg .extension{fill:transparent!important;stroke:#333333!important;stroke-width:1;}#my-svg #aggregationStart,#my-svg .aggregation{fill:transparent!important;stroke:#333333!important;stroke-width:1;}#my-svg #aggregationEnd,#my-svg .aggregation{fill:transparent!important;stroke:#333333!important;stroke-width:1;}#my-svg #lollipopStart,#my-svg .lollipop{fill:#ECECFF!important;stroke:#333333!important;stroke-width:1;}#my-svg #lollipopEnd,#my-svg .lollipop{fill:#ECECFF!important;stroke:#333333!important;stroke-width:1;}#my-svg .edgeTerminals{font-size:11px;line-height:initial;}#my-svg .classTitleText{text-anchor:middle;font-size:18px;fill:#333;}#my-svg .label-icon{display:inline-block;height:1em;overflow:visible;vertical-align:-0.125em;}#my-svg .node .label-icon path{fill:currentColor;stroke:revert;stroke-width:revert;}#my-svg :root{--mermaid-font-family:"trebuchet ms",verdana,arial,sans-serif;}</style><g><defs><marker orient="auto" markerHeight="240" markerWidth="190" refY="7" refX="18" class="marker aggregation class" id="my-svg_class-aggregationStart"><path d="M 18,7 L9,13 L1,7 L9,1 Z"/></marker></defs><defs><marker orient="auto" markerHeight="28" markerWidth="20" refY="7" refX="1" class="marker aggregation class" id="my-svg_class-aggregationEnd"><path d="M 18,7 L9,13 L1,7 L9,1 Z"/></marker></defs><defs><marker orient="auto" markerHeight="240" markerWidth="190" refY="7" refX="18" class="marker extension class" id="my-svg_class-extensionStart"><path d="M 1,7 L18,13 V 1 Z"/></marker></defs><defs><marker orient="auto" markerHeight="28" markerWidth="20" refY="7" refX="1" class="marker extension class" id="my-svg_class-extensionEnd"><path d="M 1,1 V 13 L18,7 Z"/></marker></defs><defs><marker orient="auto" markerHeight="240" markerWidth="190" refY="7" refX="18" class="marker composition class" id="my-svg_class-compositionStart"><path d="M 18,7 L9,13 L1,7 L9,1 Z"/></marker></defs><defs><marker orient="auto" markerHeight="28" markerWidth="20" refY="7" refX="1" class="marker composition class" id="my-svg_class-compositionEnd"><path d="M 18,7 L9,13 L1,7 L9,1 Z"/></marker></defs><defs><marker orient="auto" markerHeight="240" markerWidth="190" refY="7" refX="6" class="marker dependency class" id="my-svg_class-dependencyStart"><path d="M 5,7 L9,13 L1,7 L9,1 Z"/></marker></defs><defs><marker orient="auto" markerHeight="28" markerWidth="20" refY="7" refX="13" class="marker dependency class" id="my-svg_class-dependencyEnd"><path d="M 18,7 L9,13 L14,7 L9,1 Z"/></marker></defs><defs><marker orient="auto" markerHeight="240" markerWidth="190" refY="7" refX="13" class="marker lollipop class" id="my-svg_class-lollipopStart"><circle r="6" cy="7" cx="7" fill="transparent" stroke="black"/></marker></defs><defs><marker orient="auto" markerHeight="240" markerWidth="190" refY="7" refX="1" class="marker lollipop class" id="my-svg_class-lollipopEnd"><circle r="6" cy="7" cx="7" fill="transparent" stroke="black"/></marker></defs><g class="root"><g class="clusters"/><g class="edgePaths"><path marker-end="url(#my-svg_class-dependencyEnd)" style="" class="edge-thickness-normal edge-pattern-solid relation" id="id_LLMRequester_LLMClient_1" d="M379.02,522.541L351.345,536.284C323.671,550.027,268.322,577.514,240.647,600.423C212.973,623.333,212.973,641.667,212.973,650.833L212.973,660"/><path marker-end="url(#my-svg_class-dependencyEnd)" style="" class="edge-thickness-normal edge-pattern-solid relation" id="id_LLMRequester_PromptBuilder_2" d="M611.202,568L610.667,574.167C610.132,580.333,609.062,592.667,608.527,606C607.992,619.333,607.992,633.667,607.992,640.833L607.992,648"/><path marker-end="url(#my-svg_class-dependencyEnd)" style="" class="edge-thickness-normal edge-pattern-solid relation" id="id_LLMRequester_ToolRegistry_3" d="M809.657,568L816.407,574.167C823.156,580.333,836.655,592.667,850.046,604.36C863.437,616.054,876.721,627.108,883.362,632.635L890.004,638.162"/><path marker-end="url(#my-svg_class-dependencyEnd)" style="" class="edge-thickness-normal edge-pattern-solid relation" id="id_PromptBuilder_SafeFormat_4" d="M607.992,846L607.992,854.167C607.992,862.333,607.992,878.667,607.992,892C607.992,905.333,607.992,915.667,607.992,920.833L607.992,926"/><path marker-end="url(#my-svg_class-extensionEnd)" style="" class="edge-thickness-normal edge-pattern-solid relation" id="id_EvaluationAgent_LLMRequester_5" d="M212.973,158L212.973,164.167C212.973,170.333,212.973,182.667,237.96,201.242C262.948,219.818,312.923,244.636,337.91,257.044L362.898,269.453"/><path marker-end="url(#my-svg_class-extensionEnd)" style="" class="edge-thickness-normal edge-pattern-solid relation" id="id_LLMActor_LLMRequester_6" d="M643.563,158L643.563,164.167C643.563,170.333,643.563,182.667,643.287,192.011C643.011,201.356,642.46,207.712,642.184,210.889L641.908,214.067"/><path marker-end="url(#my-svg_class-extensionEnd)" style="" class="edge-thickness-normal edge-pattern-solid relation" id="id_ToolSpec_ToolRegistry_7" d="M1087.09,475L1087.09,496.667C1087.09,518.333,1087.09,561.667,1085.614,586.746C1084.138,611.826,1081.187,618.652,1079.711,622.065L1078.235,625.478"/></g><g class="edgeLabels"><g transform="translate(212.97265625, 605)" class="edgeLabel"><g transform="translate(-16.8984375, -12)" class="label"><foreignObject height="24" width="33.796875"><div class="labelBkg" xmlns="http://www.w3.org/1999/xhtml" style="display: table-cell; white-space: nowrap; line-height: 1.5; max-width: 200px; text-align: center;"><span class="edgeLabel" style=";display: inline-block"><p>uses</p></span></div></foreignObject></g></g><g transform="translate(607.9921875, 605)" class="edgeLabel"><g transform="translate(-16.8984375, -12)" class="label"><foreignObject height="24" width="33.796875"><div class="labelBkg" xmlns="http://www.w3.org/1999/xhtml" style="display: table-cell; white-space: nowrap; line-height: 1.5; max-width: 200px; text-align: center;"><span class="edgeLabel" style=";display: inline-block"><p>uses</p></span></div></foreignObject></g></g><g transform="translate(850.154296875, 605)" class="edgeLabel"><g transform="translate(-64.484375, -12)" class="label"><foreignObject height="24" width="128.96875"><div class="labelBkg" xmlns="http://www.w3.org/1999/xhtml" style="display: table-cell; white-space: nowrap; line-height: 1.5; max-width: 200px; text-align: center;"><span class="edgeLabel" style=";display: inline-block"><p>manages tools via</p></span></div></foreignObject></g></g><g transform="translate(607.9921875, 895)" class="edgeLabel"><g transform="translate(-16.8984375, -12)" class="label"><foreignObject height="24" width="33.796875"><div class="labelBkg" xmlns="http://www.w3.org/1999/xhtml" style="display: table-cell; white-space: nowrap; line-height: 1.5; max-width: 200px; text-align: center;"><span class="edgeLabel" style=";display: inline-block"><p>uses</p></span></div></foreignObject></g></g><g transform="translate(212.97265625, 195)" class="edgeLabel"><g transform="translate(-28.0234375, -12)" class="label"><foreignObject height="24" width="56.046875"><div class="labelBkg" xmlns="http://www.w3.org/1999/xhtml" style="display: table-cell; white-space: nowrap; line-height: 1.5; max-width: 200px; text-align: center;"><span class="edgeLabel" style=";display: inline-block"><p>extends</p></span></div></foreignObject></g></g><g transform="translate(643.5625, 195)" class="edgeLabel"><g transform="translate(-28.0234375, -12)" class="label"><foreignObject height="24" width="56.046875"><div class="labelBkg" xmlns="http://www.w3.org/1999/xhtml" style="display: table-cell; white-space: nowrap; line-height: 1.5; max-width: 200px; text-align: center;"><span class="edgeLabel" style=";display: inline-block"><p>extends</p></span></div></foreignObject></g></g><g transform="translate(1087.08984375, 605)" class="edgeLabel"><g transform="translate(-40.90625, -12)" class="label"><foreignObject height="24" width="81.8125"><div class="labelBkg" xmlns="http://www.w3.org/1999/xhtml" style="display: table-cell; white-space: nowrap; line-height: 1.5; max-width: 200px; text-align: center;"><span class="edgeLabel" style=";display: inline-block"><p>implements</p></span></div></foreignObject></g></g></g><g class="nodes"><g transform="translate(212.97265625, 750)" id="classId-LLMClient-0" class="node default"><g class="basic label-container"><path style="" fill="#ECECFF" stroke-width="0" stroke="none" d="M-204.97265625 -84 L204.97265625 -84 L204.97265625 84 L-204.97265625 84"/><path style="" fill="none" stroke-width="1.3" stroke="#9370DB" d="M-204.97265625 -84 C-107.66307344064562 -84, -10.353490631291237 -84, 204.97265625 -84 M-204.97265625 -84 C-53.161404985210595 -84, 98.64984627957881 -84, 204.97265625 -84 M204.97265625 -84 C204.97265625 -38.87385287745037, 204.97265625 6.2522942450992645, 204.97265625 84 M204.97265625 -84 C204.97265625 -39.29485275406414, 204.97265625 5.410294491871724, 204.97265625 84 M204.97265625 84 C89.95700644783294 84, -25.058643354334123 84, -204.97265625 84 M204.97265625 84 C55.74710013998532 84, -93.47845597002936 84, -204.97265625 84 M-204.97265625 84 C-204.97265625 45.5763088947743, -204.97265625 7.1526177895486, -204.97265625 -84 M-204.97265625 84 C-204.97265625 45.280846958611825, -204.97265625 6.56169391722365, -204.97265625 -84"/></g><g transform="translate(0, -60)" class="annotation-group text"/><g transform="translate(-38.6640625, -60)" class="label-group text"><g transform="translate(0,-12)" style="font-weight: bolder" class="label"><foreignObject height="24" width="77.328125"><div style="display: table-cell; white-space: nowrap; line-height: 1.5; max-width: 123px; text-align: center;" xmlns="http://www.w3.org/1999/xhtml"><span style="" class="nodeLabel markdown-node-label"><p>LLMClient</p></span></div></foreignObject></g></g><g transform="translate(-192.97265625, -12)" class="members-group text"><g transform="translate(0,-12)" style="" class="label"><foreignObject height="24" width="105.828125"><div style="display: table-cell; white-space: nowrap; line-height: 1.5; max-width: 155px; text-align: center;" xmlns="http://www.w3.org/1999/xhtml"><span style="" class="nodeLabel markdown-node-label"><p>-client: OpenAI</p></span></div></foreignObject></g></g><g transform="translate(-192.97265625, 36)" class="methods-group text"><g transform="translate(0,-12)" style="" class="label"><foreignObject height="24" width="99.15625"><div style="display: table-cell; white-space: nowrap; line-height: 1.5; max-width: 178px; text-align: center;" xmlns="http://www.w3.org/1999/xhtml"><span style="" class="nodeLabel markdown-node-label"><p>+<strong>init</strong>(api_key)</p></span></div></foreignObject></g><g transform="translate(0,12)" style="" class="label"><foreignObject height="24" width="347.28125"><div style="display: table-cell; white-space: nowrap; line-height: 1.5; max-width: 363px; text-align: center;" xmlns="http://www.w3.org/1999/xhtml"><span style="" class="nodeLabel markdown-node-label"><p>+chat(model, messages, tools, response_format)</p></span></div></foreignObject></g></g><g style="" class="divider"><path style="" fill="none" stroke-width="1.3" stroke="#9370DB" d="M-204.97265625 -36 C-57.29524445465742 -36, 90.38216734068516 -36, 204.97265625 -36 M-204.97265625 -36 C-102.01672681290063 -36, 0.9392026241987423 -36, 204.97265625 -36"/></g><g style="" class="divider"><path style="" fill="none" stroke-width="1.3" stroke="#9370DB" d="M-204.97265625 12 C-122.56738528423588 12, -40.162114318471765 12, 204.97265625 12 M-204.97265625 12 C-119.80478487911387 12, -34.636913508227735 12, 204.97265625 12"/></g></g><g transform="translate(607.9921875, 750)" id="classId-PromptBuilder-1" class="node default"><g class="basic label-container"><path style="" fill="#ECECFF" stroke-width="0" stroke="none" d="M-140.046875 -96 L140.046875 -96 L140.046875 96 L-140.046875 96"/><path style="" fill="none" stroke-width="1.3" stroke="#9370DB" d="M-140.046875 -96 C-39.305472018265206 -96, 61.43593096346959 -96, 140.046875 -96 M-140.046875 -96 C-75.91946891606824 -96, -11.79206283213648 -96, 140.046875 -96 M140.046875 -96 C140.046875 -55.2417401438579, 140.046875 -14.483480287715807, 140.046875 96 M140.046875 -96 C140.046875 -23.654836321458774, 140.046875 48.69032735708245, 140.046875 96 M140.046875 96 C76.83078331404798 96, 13.61469162809594 96, -140.046875 96 M140.046875 96 C56.70774876295151 96, -26.63137747409698 96, -140.046875 96 M-140.046875 96 C-140.046875 50.6444453527219, -140.046875 5.288890705443805, -140.046875 -96 M-140.046875 96 C-140.046875 25.944874737784346, -140.046875 -44.11025052443131, -140.046875 -96"/></g><g transform="translate(0, -72)" class="annotation-group text"/><g transform="translate(-55.5625, -72)" class="label-group text"><g transform="translate(0,-12)" style="font-weight: bolder" class="label"><foreignObject height="24" width="111.125"><div style="display: table-cell; white-space: nowrap; line-height: 1.5; max-width: 146px; text-align: center;" xmlns="http://www.w3.org/1999/xhtml"><span style="" class="nodeLabel markdown-node-label"><p>PromptBuilder</p></span></div></foreignObject></g></g><g transform="translate(-128.046875, -24)" class="members-group text"><g transform="translate(0,-12)" style="" class="label"><foreignObject height="24" width="93.359375"><div style="display: table-cell; white-space: nowrap; line-height: 1.5; max-width: 140px; text-align: center;" xmlns="http://www.w3.org/1999/xhtml"><span style="" class="nodeLabel markdown-node-label"><p>-template: str</p></span></div></foreignObject></g></g><g transform="translate(-128.046875, 24)" class="methods-group text"><g transform="translate(0,-12)" style="" class="label"><foreignObject height="24" width="105.375"><div style="display: table-cell; white-space: nowrap; line-height: 1.5; max-width: 183px; text-align: center;" xmlns="http://www.w3.org/1999/xhtml"><span style="" class="nodeLabel markdown-node-label"><p>+<strong>init</strong>(template)</p></span></div></foreignObject></g><g transform="translate(0,12)" style="" class="label"><foreignObject height="24" width="196.96875"><div style="display: table-cell; white-space: nowrap; line-height: 1.5; max-width: 237px; text-align: center;" xmlns="http://www.w3.org/1999/xhtml"><span style="" class="nodeLabel markdown-node-label"><p>+build(prompt_params) : str</p></span></div></foreignObject></g><g transform="translate(0,36)" style="" class="label"><foreignObject height="24" width="200.53125"><div style="display: table-cell; white-space: nowrap; line-height: 1.5; max-width: 239px; text-align: center;" xmlns="http://www.w3.org/1999/xhtml"><span style="" class="nodeLabel markdown-node-label"><p>+extract_placeholders() : list</p></span></div></foreignObject></g></g><g style="" class="divider"><path style="" fill="none" stroke-width="1.3" stroke="#9370DB" d="M-140.046875 -48 C-31.095663908507788 -48, 77.85554718298442 -48, 140.046875 -48 M-140.046875 -48 C-37.066228336749234 -48, 65.91441832650153 -48, 140.046875 -48"/></g><g style="" class="divider"><path style="" fill="none" stroke-width="1.3" stroke="#9370DB" d="M-140.046875 0 C-63.99967857948529 0, 12.047517841029418 0, 140.046875 0 M-140.046875 0 C-61.18041428218832 0, 17.686046435623354 0, 140.046875 0"/></g></g><g transform="translate(607.9921875, 995)" id="classId-SafeFormat-2" class="node default"><g class="basic label-container"><path style="" fill="#ECECFF" stroke-width="0" stroke="none" d="M-117.3828125 -63 L117.3828125 -63 L117.3828125 63 L-117.3828125 63"/><path style="" fill="none" stroke-width="1.3" stroke="#9370DB" d="M-117.3828125 -63 C-33.93299840530685 -63, 49.516815689386306 -63, 117.3828125 -63 M-117.3828125 -63 C-31.554408503230476 -63, 54.27399549353905 -63, 117.3828125 -63 M117.3828125 -63 C117.3828125 -21.42654398332703, 117.3828125 20.14691203334594, 117.3828125 63 M117.3828125 -63 C117.3828125 -18.92625453098791, 117.3828125 25.147490938024177, 117.3828125 63 M117.3828125 63 C23.60601570492946 63, -70.17078109014108 63, -117.3828125 63 M117.3828125 63 C25.33583218100965 63, -66.7111481379807 63, -117.3828125 63 M-117.3828125 63 C-117.3828125 33.36531911177466, -117.3828125 3.7306382235493203, -117.3828125 -63 M-117.3828125 63 C-117.3828125 30.352660264039628, -117.3828125 -2.2946794719207446, -117.3828125 -63"/></g><g transform="translate(0, -39)" class="annotation-group text"/><g transform="translate(-44.015625, -39)" class="label-group text"><g transform="translate(0,-12)" style="font-weight: bolder" class="label"><foreignObject height="24" width="88.03125"><div style="display: table-cell; white-space: nowrap; line-height: 1.5; max-width: 125px; text-align: center;" xmlns="http://www.w3.org/1999/xhtml"><span style="" class="nodeLabel markdown-node-label"><p>SafeFormat</p></span></div></foreignObject></g></g><g transform="translate(-105.3828125, 9)" class="members-group text"/><g transform="translate(-105.3828125, 39)" class="methods-group text"><g transform="translate(0,-12)" style="" class="label"><foreignObject height="24" width="166.75"><div style="display: table-cell; white-space: nowrap; line-height: 1.5; max-width: 208px; text-align: center;" xmlns="http://www.w3.org/1999/xhtml"><span style="" class="nodeLabel markdown-node-label"><p>+format_map(mapping)</p></span></div></foreignObject></g></g><g style="" class="divider"><path style="" fill="none" stroke-width="1.3" stroke="#9370DB" d="M-117.3828125 -15 C-38.749318634009214 -15, 39.88417523198157 -15, 117.3828125 -15 M-117.3828125 -15 C-40.52332791810359 -15, 36.33615666379282 -15, 117.3828125 -15"/></g><g style="" class="divider"><path style="" fill="none" stroke-width="1.3" stroke="#9370DB" d="M-117.3828125 9 C-45.497481060472325 9, 26.38785037905535 9, 117.3828125 9 M-117.3828125 9 C-52.88092917447804 9, 11.620954151043918 9, 117.3828125 9"/></g></g><g transform="translate(1024.39453125, 750)" id="classId-ToolRegistry-3" class="node default"><g class="basic label-container"><path style="" fill="#ECECFF" stroke-width="0" stroke="none" d="M-157.32421875 -108 L157.32421875 -108 L157.32421875 108 L-157.32421875 108"/><path style="" fill="none" stroke-width="1.3" stroke="#9370DB" d="M-157.32421875 -108 C-56.6182039043633 -108, 44.0878109412734 -108, 157.32421875 -108 M-157.32421875 -108 C-81.18817485161667 -108, -5.0521309532333305 -108, 157.32421875 -108 M157.32421875 -108 C157.32421875 -51.89488645514727, 157.32421875 4.210227089705455, 157.32421875 108 M157.32421875 -108 C157.32421875 -36.29082645692854, 157.32421875 35.418347086142916, 157.32421875 108 M157.32421875 108 C57.87287253482488 108, -41.57847368035024 108, -157.32421875 108 M157.32421875 108 C44.79494259681893 108, -67.73433355636215 108, -157.32421875 108 M-157.32421875 108 C-157.32421875 43.903260459687985, -157.32421875 -20.19347908062403, -157.32421875 -108 M-157.32421875 108 C-157.32421875 39.130911260064195, -157.32421875 -29.73817747987161, -157.32421875 -108"/></g><g transform="translate(0, -84)" class="annotation-group text"/><g transform="translate(-48.3046875, -84)" class="label-group text"><g transform="translate(0,-12)" style="font-weight: bolder" class="label"><foreignObject height="24" width="96.609375"><div style="display: table-cell; white-space: nowrap; line-height: 1.5; max-width: 133px; text-align: center;" xmlns="http://www.w3.org/1999/xhtml"><span style="" class="nodeLabel markdown-node-label"><p>ToolRegistry</p></span></div></foreignObject></g></g><g transform="translate(-145.32421875, -36)" class="members-group text"><g transform="translate(0,-12)" style="" class="label"><foreignObject height="24" width="81.8125"><div style="display: table-cell; white-space: nowrap; line-height: 1.5; max-width: 137px; text-align: center;" xmlns="http://www.w3.org/1999/xhtml"><span style="" class="nodeLabel markdown-node-label"><p>-_tools: dict</p></span></div></foreignObject></g></g><g transform="translate(-145.32421875, 12)" class="methods-group text"><g transform="translate(0,-12)" style="" class="label"><foreignObject height="24" width="44"><div style="display: table-cell; white-space: nowrap; line-height: 1.5; max-width: 127px; text-align: center;" xmlns="http://www.w3.org/1999/xhtml"><span style="" class="nodeLabel markdown-node-label"><p>+<strong>init</strong>()</p></span></div></foreignObject></g><g transform="translate(0,12)" style="" class="label"><foreignObject height="24" width="242.34375"><div style="display: table-cell; white-space: nowrap; line-height: 1.5; max-width: 274px; text-align: center;" xmlns="http://www.w3.org/1999/xhtml"><span style="" class="nodeLabel markdown-node-label"><p>+register_from_instance(instance)</p></span></div></foreignObject></g><g transform="translate(0,36)" style="" class="label"><foreignObject height="24" width="208.5625"><div style="display: table-cell; white-space: nowrap; line-height: 1.5; max-width: 245px; text-align: center;" xmlns="http://www.w3.org/1999/xhtml"><span style="" class="nodeLabel markdown-node-label"><p>+execute(function_call, state)</p></span></div></foreignObject></g><g transform="translate(0,60)" style="" class="label"><foreignObject height="24" width="112.9375"><div style="display: table-cell; white-space: nowrap; line-height: 1.5; max-width: 158px; text-align: center;" xmlns="http://www.w3.org/1999/xhtml"><span style="" class="nodeLabel markdown-node-label"><p>-_wrap(method)</p></span></div></foreignObject></g></g><g style="" class="divider"><path style="" fill="none" stroke-width="1.3" stroke="#9370DB" d="M-157.32421875 -60 C-34.5458796553892 -60, 88.2324594392216 -60, 157.32421875 -60 M-157.32421875 -60 C-57.343596380822305 -60, 42.63702598835539 -60, 157.32421875 -60"/></g><g style="" class="divider"><path style="" fill="none" stroke-width="1.3" stroke="#9370DB" d="M-157.32421875 -12 C-92.52239368976424 -12, -27.720568629528486 -12, 157.32421875 -12 M-157.32421875 -12 C-47.5022670996659 -12, 62.3196845506682 -12, 157.32421875 -12"/></g></g><g transform="translate(1087.08984375, 400)" id="classId-ToolSpec-4" class="node default"><g class="basic label-container"><path style="" fill="#ECECFF" stroke-width="0" stroke="none" d="M-153.10546875 -75 L153.10546875 -75 L153.10546875 75 L-153.10546875 75"/><path style="" fill="none" stroke-width="1.3" stroke="#9370DB" d="M-153.10546875 -75 C-83.2162701385509 -75, -13.327071527101793 -75, 153.10546875 -75 M-153.10546875 -75 C-54.213571724549226 -75, 44.67832530090155 -75, 153.10546875 -75 M153.10546875 -75 C153.10546875 -22.811419911439607, 153.10546875 29.377160177120786, 153.10546875 75 M153.10546875 -75 C153.10546875 -20.78504699451009, 153.10546875 33.42990601097982, 153.10546875 75 M153.10546875 75 C42.680542202061176 75, -67.74438434587765 75, -153.10546875 75 M153.10546875 75 C55.00343258669906 75, -43.098603576601874 75, -153.10546875 75 M-153.10546875 75 C-153.10546875 38.42096480519765, -153.10546875 1.8419296103952973, -153.10546875 -75 M-153.10546875 75 C-153.10546875 27.4526812183313, -153.10546875 -20.0946375633374, -153.10546875 -75"/></g><g transform="translate(0, -51)" class="annotation-group text"/><g transform="translate(-35.4140625, -51)" class="label-group text"><g transform="translate(0,-12)" style="font-weight: bolder" class="label"><foreignObject height="24" width="70.828125"><div style="display: table-cell; white-space: nowrap; line-height: 1.5; max-width: 110px; text-align: center;" xmlns="http://www.w3.org/1999/xhtml"><span style="" class="nodeLabel markdown-node-label"><p>ToolSpec</p></span></div></foreignObject></g></g><g transform="translate(-141.10546875, -3)" class="members-group text"/><g transform="translate(-141.10546875, 27)" class="methods-group text"><g transform="translate(0,-12)" style="" class="label"><foreignObject height="24" width="117.828125"><div style="display: table-cell; white-space: nowrap; line-height: 1.5; max-width: 165px; text-align: center;" xmlns="http://www.w3.org/1999/xhtml"><span style="" class="nodeLabel markdown-node-label"><p>+get_tools() : list</p></span></div></foreignObject></g><g transform="translate(0,12)" style="" class="label"><foreignObject height="24" width="246.796875"><div style="display: table-cell; white-space: nowrap; line-height: 1.5; max-width: 276px; text-align: center;" xmlns="http://www.w3.org/1999/xhtml"><span style="" class="nodeLabel markdown-node-label"><p>+call_tool(name, arguments, state)</p></span></div></foreignObject></g></g><g style="" class="divider"><path style="" fill="none" stroke-width="1.3" stroke="#9370DB" d="M-153.10546875 -27 C-80.28675742609306 -27, -7.468046102186122 -27, 153.10546875 -27 M-153.10546875 -27 C-85.06701986478612 -27, -17.028570979572237 -27, 153.10546875 -27"/></g><g style="" class="divider"><path style="" fill="none" stroke-width="1.3" stroke="#9370DB" d="M-153.10546875 -3 C-46.35900877977751 -3, 60.38745119044498 -3, 153.10546875 -3 M-153.10546875 -3 C-53.50296642349933 -3, 46.09953590300134 -3, 153.10546875 -3"/></g></g><g transform="translate(625.77734375, 400)" id="classId-LLMRequester-5" class="node default"><g class="basic label-container"><path style="" fill="#ECECFF" stroke-width="0" stroke="none" d="M-246.7578125 -168 L246.7578125 -168 L246.7578125 168 L-246.7578125 168"/><path style="" fill="none" stroke-width="1.3" stroke="#9370DB" d="M-246.7578125 -168 C-92.41457143383067 -168, 61.928669632338654 -168, 246.7578125 -168 M-246.7578125 -168 C-81.39010599750006 -168, 83.97760050499988 -168, 246.7578125 -168 M246.7578125 -168 C246.7578125 -87.67995836355011, 246.7578125 -7.359916727100227, 246.7578125 168 M246.7578125 -168 C246.7578125 -99.85956686945777, 246.7578125 -31.71913373891553, 246.7578125 168 M246.7578125 168 C85.77549629564473 168, -75.20681990871054 168, -246.7578125 168 M246.7578125 168 C77.53733793040288 168, -91.68313663919423 168, -246.7578125 168 M-246.7578125 168 C-246.7578125 35.61320060606815, -246.7578125 -96.7735987878637, -246.7578125 -168 M-246.7578125 168 C-246.7578125 36.01088402923, -246.7578125 -95.97823194154, -246.7578125 -168"/></g><g transform="translate(0, -144)" class="annotation-group text"/><g transform="translate(-55.5625, -144)" class="label-group text"><g transform="translate(0,-12)" style="font-weight: bolder" class="label"><foreignObject height="24" width="111.125"><div style="display: table-cell; white-space: nowrap; line-height: 1.5; max-width: 148px; text-align: center;" xmlns="http://www.w3.org/1999/xhtml"><span style="" class="nodeLabel markdown-node-label"><p>LLMRequester</p></span></div></foreignObject></g></g><g transform="translate(-234.7578125, -96)" class="members-group text"><g transform="translate(0,-12)" style="" class="label"><foreignObject height="24" width="123.609375"><div style="display: table-cell; white-space: nowrap; line-height: 1.5; max-width: 177px; text-align: center;" xmlns="http://www.w3.org/1999/xhtml"><span style="" class="nodeLabel markdown-node-label"><p>-client: LLMClient</p></span></div></foreignObject></g><g transform="translate(0,12)" style="" class="label"><foreignObject height="24" width="222.328125"><div style="display: table-cell; white-space: nowrap; line-height: 1.5; max-width: 264px; text-align: center;" xmlns="http://www.w3.org/1999/xhtml"><span style="" class="nodeLabel markdown-node-label"><p>-prompt_builder: PromptBuilder</p></span></div></foreignObject></g><g transform="translate(0,36)" style="" class="label"><foreignObject height="24" width="67.578125"><div style="display: table-cell; white-space: nowrap; line-height: 1.5; max-width: 119px; text-align: center;" xmlns="http://www.w3.org/1999/xhtml"><span style="" class="nodeLabel markdown-node-label"><p>-tools: list</p></span></div></foreignObject></g><g transform="translate(0,60)" style="" class="label"><foreignObject height="24" width="151.203125"><div style="display: table-cell; white-space: nowrap; line-height: 1.5; max-width: 199px; text-align: center;" xmlns="http://www.w3.org/1999/xhtml"><span style="" class="nodeLabel markdown-node-label"><p>-function_lookup: dict</p></span></div></foreignObject></g></g><g transform="translate(-234.7578125, 24)" class="methods-group text"><g transform="translate(0,-12)" style="" class="label"><foreignObject height="24" width="253"><div style="display: table-cell; white-space: nowrap; line-height: 1.5; max-width: 319px; text-align: center;" xmlns="http://www.w3.org/1999/xhtml"><span style="" class="nodeLabel markdown-node-label"><p>+<strong>init</strong>(client, prompt_template, tools)</p></span></div></foreignObject></g><g transform="translate(0,12)" style="" class="label"><foreignObject height="24" width="135.609375"><div style="display: table-cell; white-space: nowrap; line-height: 1.5; max-width: 178px; text-align: center;" xmlns="http://www.w3.org/1999/xhtml"><span style="" class="nodeLabel markdown-node-label"><p>+register(name, fn)</p></span></div></foreignObject></g><g transform="translate(0,36)" style="" class="label"><foreignObject height="24" width="317.015625"><div style="display: table-cell; white-space: nowrap; line-height: 1.5; max-width: 347px; text-align: center;" xmlns="http://www.w3.org/1999/xhtml"><span style="" class="nodeLabel markdown-node-label"><p>+build_system_prompt(prompt_params) : list</p></span></div></foreignObject></g><g transform="translate(0,60)" style="" class="label"><foreignObject height="24" width="413.953125"><div style="display: table-cell; white-space: nowrap; line-height: 1.5; max-width: 425px; text-align: center;" xmlns="http://www.w3.org/1999/xhtml"><span style="" class="nodeLabel markdown-node-label"><p>+update_system_prompt(messages, prompt_params) : list</p></span></div></foreignObject></g><g transform="translate(0,84)" style="" class="label"><foreignObject height="24" width="354.390625"><div style="display: table-cell; white-space: nowrap; line-height: 1.5; max-width: 369px; text-align: center;" xmlns="http://www.w3.org/1999/xhtml"><span style="" class="nodeLabel markdown-node-label"><p>+run(messages, model, state, run_params) : tuple</p></span></div></foreignObject></g><g transform="translate(0,108)" style="" class="label"><foreignObject height="24" width="356.171875"><div style="display: table-cell; white-space: nowrap; line-height: 1.5; max-width: 372px; text-align: center;" xmlns="http://www.w3.org/1999/xhtml"><span style="" class="nodeLabel markdown-node-label"><p>+talk(messages, model, state, run_params) : tuple</p></span></div></foreignObject></g></g><g style="" class="divider"><path style="" fill="none" stroke-width="1.3" stroke="#9370DB" d="M-246.7578125 -120 C-110.28771613428745 -120, 26.1823802314251 -120, 246.7578125 -120 M-246.7578125 -120 C-74.74857120199368 -120, 97.26067009601263 -120, 246.7578125 -120"/></g><g style="" class="divider"><path style="" fill="none" stroke-width="1.3" stroke="#9370DB" d="M-246.7578125 0 C-129.78098113781573 0, -12.804149775631458 0, 246.7578125 0 M-246.7578125 0 C-141.7085781914526 0, -36.659343882905176 0, 246.7578125 0"/></g></g><g transform="translate(212.97265625, 83)" id="classId-EvaluationAgent-6" class="node default"><g class="basic label-container"><path style="" fill="#ECECFF" stroke-width="0" stroke="none" d="M-170.05859375 -75 L170.05859375 -75 L170.05859375 75 L-170.05859375 75"/><path style="" fill="none" stroke-width="1.3" stroke="#9370DB" d="M-170.05859375 -75 C-60.800812490730635 -75, 48.45696876853873 -75, 170.05859375 -75 M-170.05859375 -75 C-62.143317494538834 -75, 45.77195876092233 -75, 170.05859375 -75 M170.05859375 -75 C170.05859375 -19.3331076901731, 170.05859375 36.3337846196538, 170.05859375 75 M170.05859375 -75 C170.05859375 -31.46094172341916, 170.05859375 12.078116553161678, 170.05859375 75 M170.05859375 75 C72.0430104856675 75, -25.97257277866501 75, -170.05859375 75 M170.05859375 75 C56.93843818499121 75, -56.181717380017574 75, -170.05859375 75 M-170.05859375 75 C-170.05859375 28.031963510383598, -170.05859375 -18.936072979232804, -170.05859375 -75 M-170.05859375 75 C-170.05859375 16.990027122165138, -170.05859375 -41.019945755669724, -170.05859375 -75"/></g><g transform="translate(0, -51)" class="annotation-group text"/><g transform="translate(-63.1171875, -51)" class="label-group text"><g transform="translate(0,-12)" style="font-weight: bolder" class="label"><foreignObject height="24" width="126.234375"><div style="display: table-cell; white-space: nowrap; line-height: 1.5; max-width: 159px; text-align: center;" xmlns="http://www.w3.org/1999/xhtml"><span style="" class="nodeLabel markdown-node-label"><p>EvaluationAgent</p></span></div></foreignObject></g></g><g transform="translate(-158.05859375, -3)" class="members-group text"/><g transform="translate(-158.05859375, 27)" class="methods-group text"><g transform="translate(0,-12)" style="" class="label"><foreignObject height="24" width="253"><div style="display: table-cell; white-space: nowrap; line-height: 1.5; max-width: 319px; text-align: center;" xmlns="http://www.w3.org/1999/xhtml"><span style="" class="nodeLabel markdown-node-label"><p>+<strong>init</strong>(client, prompt_template, tools)</p></span></div></foreignObject></g><g transform="translate(0,12)" style="" class="label"><foreignObject height="24" width="198.796875"><div style="display: table-cell; white-space: nowrap; line-height: 1.5; max-width: 237px; text-align: center;" xmlns="http://www.w3.org/1999/xhtml"><span style="" class="nodeLabel markdown-node-label"><p>+evaluate(user_input) : float</p></span></div></foreignObject></g></g><g style="" class="divider"><path style="" fill="none" stroke-width="1.3" stroke="#9370DB" d="M-170.05859375 -27 C-97.5255896090349 -27, -24.99258546806979 -27, 170.05859375 -27 M-170.05859375 -27 C-94.77944802492718 -27, -19.500302299854354 -27, 170.05859375 -27"/></g><g style="" class="divider"><path style="" fill="none" stroke-width="1.3" stroke="#9370DB" d="M-170.05859375 -3 C-91.82166279629757 -3, -13.584731842595147 -3, 170.05859375 -3 M-170.05859375 -3 C-54.2318718035647 -3, 61.5948501428706 -3, 170.05859375 -3"/></g></g><g transform="translate(643.5625, 83)" id="classId-LLMActor-7" class="node default"><g class="basic label-container"><path style="" fill="#ECECFF" stroke-width="0" stroke="none" d="M-210.53125 -75 L210.53125 -75 L210.53125 75 L-210.53125 75"/><path style="" fill="none" stroke-width="1.3" stroke="#9370DB" d="M-210.53125 -75 C-48.456373103034764 -75, 113.61850379393047 -75, 210.53125 -75 M-210.53125 -75 C-90.6653659761209 -75, 29.20051804775821 -75, 210.53125 -75 M210.53125 -75 C210.53125 -38.99099055523601, 210.53125 -2.98198111047202, 210.53125 75 M210.53125 -75 C210.53125 -39.75046589364535, 210.53125 -4.500931787290696, 210.53125 75 M210.53125 75 C87.83108567243725 75, -34.86907865512549 75, -210.53125 75 M210.53125 75 C46.65788930039284 75, -117.21547139921432 75, -210.53125 75 M-210.53125 75 C-210.53125 41.96064180202968, -210.53125 8.921283604059354, -210.53125 -75 M-210.53125 75 C-210.53125 33.065352708404845, -210.53125 -8.86929458319031, -210.53125 -75"/></g><g transform="translate(0, -51)" class="annotation-group text"/><g transform="translate(-37.328125, -51)" class="label-group text"><g transform="translate(0,-12)" style="font-weight: bolder" class="label"><foreignObject height="24" width="74.65625"><div style="display: table-cell; white-space: nowrap; line-height: 1.5; max-width: 121px; text-align: center;" xmlns="http://www.w3.org/1999/xhtml"><span style="" class="nodeLabel markdown-node-label"><p>LLMActor</p></span></div></foreignObject></g></g><g transform="translate(-198.53125, -3)" class="members-group text"/><g transform="translate(-198.53125, 27)" class="methods-group text"><g transform="translate(0,-12)" style="" class="label"><foreignObject height="24" width="253"><div style="display: table-cell; white-space: nowrap; line-height: 1.5; max-width: 319px; text-align: center;" xmlns="http://www.w3.org/1999/xhtml"><span style="" class="nodeLabel markdown-node-label"><p>+<strong>init</strong>(client, prompt_template, tools)</p></span></div></foreignObject></g><g transform="translate(0,12)" style="" class="label"><foreignObject height="24" width="359.734375"><div style="display: table-cell; white-space: nowrap; line-height: 1.5; max-width: 382px; text-align: center;" xmlns="http://www.w3.org/1999/xhtml"><span style="" class="nodeLabel markdown-node-label"><p>+fc_*() : methods for automatic schema generation</p></span></div></foreignObject></g></g><g style="" class="divider"><path style="" fill="none" stroke-width="1.3" stroke="#9370DB" d="M-210.53125 -27 C-112.75175716034761 -27, -14.972264320695217 -27, 210.53125 -27 M-210.53125 -27 C-48.76801792236313 -27, 112.99521415527374 -27, 210.53125 -27"/></g><g style="" class="divider"><path style="" fill="none" stroke-width="1.3" stroke="#9370DB" d="M-210.53125 -3 C-108.42113837054809 -3, -6.311026741096185 -3, 210.53125 -3 M-210.53125 -3 C-49.35317188545403 -3, 111.82490622909194 -3, 210.53125 -3"/></g></g></g></g></g><text class="classDiagramTitleText" y="-25" x="624.09765625" text-anchor="middle">AIDU LLM Class Inheritance Structure</text></svg>